<?xml version="1.0" encoding="utf-8"?>
<!-- Generator: Adobe Illustrator 24.1.1, SVG Export Plug-In . SVG Version: 6.00 Build 0)  -->
<svg version="1.1" id="Layer_1" xmlns="http://www.w3.org/2000/svg" xmlns:xlink="http://www.w3.org/1999/xlink" x="0px" y="0px"
	 viewBox="0 0 41 41" style="enable-background:new 0 0 41 41;" xml:space="preserve">
<style type="text/css">
	.st0{fill:#AD1F23;}
	.st1{fill:#FFFFFF;}
</style>
<path class="st0" d="M20.5,1L20.5,1c11,0,20,9,20,20l0,0c0,11-9,20-20,20l0,0c-11,0-20-9-20-20l0,0C0.5,10,9.5,1,20.5,1z"/>
<g>
	<path class="st1" d="M34.6,28.1l-1.9-2.9l0.5,2.6c0,1-2.1,0.6-2.1,0.6c-2.7-0.5-9.3-3.2-11.6-4.3c0,0-8.7-3.7-12-7.7
		c0,0-0.6-1.3,1.1-2.6c-1.6,0.4-3.2,1.3-2.1,3.4c0.6,1.2,1.9,2.3,3.6,3.4c-0.2,4.5,1.2,6.8,5,9.4c5.8,3.1,10.3,0.9,12.4-0.7
		c2.1,0.5,4.1,0.9,5.5,0.8C34.8,30,35.1,29.5,34.6,28.1z"/>
	<path class="st1" d="M31.2,20.9c0-5.8-4.7-10.5-10.5-10.5c-4.6,0-8.5,3-10,7.1c5,3.4,11.9,6.8,19.1,8.5
		C30.7,24.6,31.2,22.8,31.2,20.9z M18.4,18.4c-1.3,0-2.4-1.1-2.4-2.4s1.1-2.4,2.4-2.4s2.4,1.1,2.4,2.4
		C20.8,17.3,19.7,18.4,18.4,18.4z"/>
</g>
</svg>
