<svg width="1728" height="413" viewBox="0 0 1728 413" fill="none" xmlns="http://www.w3.org/2000/svg">
<rect x="132.321" y="246.041" width="166.057" height="166.057" stroke="#B8AD95"/>
<rect x="-0.705402" y="0.0490659" width="166.057" height="166.057" transform="matrix(-0.754468 -0.656336 -0.656336 0.754468 1388.69 289.183)" stroke="#B8AD95"/>
<circle cx="397.532" cy="321.483" r="90.6147" stroke="#B8AD95"/>
<circle cx="91.1147" cy="91.1147" r="90.6147" transform="matrix(-1 0 0 1 1572.13 230.369)" stroke="#B8AD95"/>
<path d="M-26.1003 167.748L43.1607 48.387L178.083 77.3735L192.208 214.649L66.0162 270.504L-26.1003 167.748Z" stroke="#B8AD95"/>
<path d="M798.156 412.098L894.466 245.284L990.776 412.098H798.156Z" stroke="#B8AD95"/>
<path d="M568.019 220.367L660.883 254.576L677.689 352.103L601.631 415.421L508.767 381.212L491.961 283.685L568.019 220.367Z" fill="#E9E4D9" fill-opacity="0.7" stroke="#B8AD95"/>
<path d="M1077.24 220.367L984.381 254.576L967.575 352.103L1043.63 415.421L1136.5 381.212L1153.3 283.685L1077.24 220.367Z" fill="#E9E4D9" fill-opacity="0.7" stroke="#B8AD95"/>
<path d="M283.222 33.3764L320.37 97.4101L320.513 97.6581L320.8 97.6592L394.828 97.9482L345.408 153.065L345.217 153.279L345.304 153.552L367.905 224.046L300.214 194.077L299.952 193.961L299.719 194.128L239.659 237.407L247.244 163.768L247.274 163.483L247.042 163.313L187.322 119.567L259.701 104.025L259.981 103.965L260.071 103.692L283.222 33.3764Z" fill="#E9E4D9" fill-opacity="0.7" stroke="#B8AD95"/>
<path d="M1682.31 212.391L1645.16 276.424L1645.02 276.672L1644.73 276.673L1570.7 276.962L1620.12 332.08L1620.31 332.293L1620.23 332.566L1597.63 403.061L1665.32 373.091L1665.58 372.975L1665.81 373.143L1725.87 416.422L1718.29 342.782L1718.26 342.497L1718.49 342.328L1778.21 298.581L1705.83 283.039L1705.55 282.979L1705.46 282.707L1682.31 212.391Z" fill="#E9E4D9" fill-opacity="0.7" stroke="#B8AD95"/>
<rect x="808.839" y="231.108" width="75.0341" height="183.151" transform="rotate(44.607 808.839 231.108)" stroke="#B8AD95"/>
<rect x="1504.55" y="125.402" width="68.3022" height="183.151" transform="rotate(63.7244 1504.55 125.402)" fill="#E9E4D9" fill-opacity="0.7" stroke="#B8AD95"/>
<path d="M1553.36 42.5098L1629.08 11.1444L1704.81 42.5098L1736.17 118.232L1704.81 193.955L1629.08 225.32L1553.36 193.955L1521.99 118.232L1553.36 42.5098Z" stroke="#B8AD95"/>
</svg>
