<svg width="1728" height="413" viewBox="0 0 1728 413" fill="none" xmlns="http://www.w3.org/2000/svg">
<g opacity="0.2">
<rect x="132.45" y="246.97" width="166.057" height="166.057" stroke="#B8AD95"/>
<rect x="-0.705402" y="0.0490659" width="166.057" height="166.057" transform="matrix(-0.754468 -0.656336 -0.656336 0.754468 1388.82 290.112)" stroke="#B8AD95"/>
<circle cx="397.661" cy="322.412" r="90.6147" stroke="#B8AD95"/>
<circle cx="91.1147" cy="91.1147" r="90.6147" transform="matrix(-1 0 0 1 1572.26 231.297)" stroke="#B8AD95"/>
<path d="M-25.9716 168.677L43.2894 49.3158L178.212 78.3023L192.337 215.578L66.1449 271.433L-25.9716 168.677Z" stroke="#B8AD95"/>
<path d="M798.284 413.027L894.594 246.213L990.904 413.027H798.284Z" stroke="#B8AD95"/>
<path d="M568.147 221.296L661.011 255.505L677.817 353.032L601.759 416.35L508.895 382.141L492.089 284.614L568.147 221.296Z" fill="#E9E4D9" fill-opacity="0.7" stroke="#B8AD95"/>
<path d="M1077.37 221.296L984.509 255.505L967.703 353.032L1043.76 416.35L1136.63 382.141L1153.43 284.614L1077.37 221.296Z" fill="#E9E4D9" fill-opacity="0.7" stroke="#B8AD95"/>
<path d="M283.35 34.3054L320.498 98.3391L320.642 98.5871L320.929 98.5882L394.957 98.8772L345.537 153.994L345.345 154.208L345.433 154.481L368.034 224.975L300.343 195.006L300.081 194.89L299.848 195.057L239.788 238.336L247.373 164.697L247.402 164.412L247.171 164.242L187.451 120.496L259.83 104.954L260.11 104.894L260.2 104.621L283.35 34.3054Z" fill="#E9E4D9" fill-opacity="0.7" stroke="#B8AD95"/>
<path d="M1682.44 213.32L1645.29 277.353L1645.15 277.601L1644.86 277.602L1570.83 277.891L1620.25 333.009L1620.44 333.222L1620.36 333.495L1597.75 403.989L1665.45 374.02L1665.71 373.904L1665.94 374.071L1726 417.351L1718.42 343.711L1718.39 343.426L1718.62 343.257L1778.34 299.51L1705.96 283.968L1705.68 283.908L1705.59 283.635L1682.44 213.32Z" fill="#E9E4D9" fill-opacity="0.7" stroke="#B8AD95"/>
<rect x="808.967" y="232.037" width="75.0341" height="183.151" transform="rotate(44.607 808.967 232.037)" stroke="#B8AD95"/>
<rect x="1504.68" y="126.331" width="68.3022" height="183.151" transform="rotate(63.7244 1504.68 126.331)" fill="#E9E4D9" fill-opacity="0.7" stroke="#B8AD95"/>
<path d="M1553.49 43.4388L1629.21 12.0734L1704.93 43.4388L1736.3 119.161L1704.93 194.884L1629.21 226.249L1553.49 194.884L1522.12 119.161L1553.49 43.4388Z" stroke="#B8AD95"/>
</g>
</svg>
