<?xml version="1.0" encoding="utf-8"?>
<!-- Generator: Adobe Illustrator 24.1.1, SVG Export Plug-In . SVG Version: 6.00 Build 0)  -->
<svg version="1.1" id="Layer_1" xmlns="http://www.w3.org/2000/svg" xmlns:xlink="http://www.w3.org/1999/xlink" x="0px" y="0px"
	 viewBox="0 0 1209.01 291.56" style="enable-background:new 0 0 1209.01 291.56;" xml:space="preserve">
<style type="text/css">
	.st0{clip-path:url(#SVGID_2_);}
	.st1{clip-path:url(#SVGID_4_);fill:#B8AE96;}
	.st2{clip-path:url(#SVGID_6_);fill:#B8AE96;}
	.st3{clip-path:url(#SVGID_8_);fill:#B8AE96;}
	.st4{clip-path:url(#SVGID_10_);fill:#B8AE96;}
	.st5{clip-path:url(#SVGID_12_);fill:#B8AE96;}
	.st6{clip-path:url(#SVGID_14_);fill:#B8AE96;}
	.st7{opacity:0.7;clip-path:url(#SVGID_2_);fill:#E9E4D9;}
	.st8{clip-path:url(#SVGID_16_);fill:#B8AE96;}
	.st9{clip-path:url(#SVGID_18_);fill:#B8AE96;}
	.st10{clip-path:url(#SVGID_20_);fill:#B8AE96;}
	.st11{clip-path:url(#SVGID_22_);fill:#B8AE96;}
	.st12{clip-path:url(#SVGID_24_);fill:#B8AE96;}
	.st13{clip-path:url(#SVGID_26_);fill:#B8AE96;}
	.st14{clip-path:url(#SVGID_28_);fill:#B8AE96;}
</style>
<g>
	<g>
		<defs>
			<rect id="SVGID_1_" width="1209.01" height="291.56"/>
		</defs>
		<clipPath id="SVGID_2_">
			<use xlink:href="#SVGID_1_"  style="overflow:visible;"/>
		</clipPath>
		<g class="st0">
			<defs>
				<rect id="SVGID_3_" x="125.54" y="159.25" width="109" height="109"/>
			</defs>
			<clipPath id="SVGID_4_">
				<use xlink:href="#SVGID_3_"  style="overflow:visible;"/>
			</clipPath>
			<path class="st1" d="M126.54,268.25v-109h-2v109H126.54z M234.54,267.25h-109v2h109V267.25z M233.54,159.25v109h2v-109H233.54z
				 M125.54,160.25h109v-2h-109V160.25z M125.54,268.25h-1v1h1V268.25z M234.54,268.25v1h1v-1H234.54z M234.54,159.25h1v-1h-1
				V159.25z M125.54,159.25v-1h-1v1H125.54z"/>
		</g>
		<g class="st0">
			<defs>
				
					<rect id="SVGID_5_" x="817.05" y="138.7" transform="matrix(0.6563 -0.7545 0.7545 0.6563 153.6813 724.1451)" width="109.35" height="109.35"/>
			</defs>
			<clipPath id="SVGID_6_">
				<use xlink:href="#SVGID_5_"  style="overflow:visible;"/>
			</clipPath>
			<path class="st2" d="M876.33,269.86l71.77-82.5l1.51,1.31l-71.77,82.5L876.33,269.86z M795.25,197.99l82.5,71.77l-1.31,1.51
				l-82.5-71.77L795.25,197.99z M867.11,116.9l-71.77,82.5l-1.51-1.31l71.77-82.5L867.11,116.9z M948.2,188.77L865.7,117l1.31-1.51
				l82.5,71.77L948.2,188.77z M877.09,270.51l0.75,0.66l-0.66,0.75l-0.75-0.66L877.09,270.51z M794.59,198.74l-0.66,0.75l-0.75-0.66
				l0.66-0.75L794.59,198.74z M866.36,116.24l-0.75-0.66l0.66-0.75l0.75,0.66L866.36,116.24z M948.86,188.01l0.66-0.75l0.75,0.66
				l-0.66,0.75L948.86,188.01z"/>
		</g>
		<g class="st0">
			<defs>
				<circle id="SVGID_7_" cx="299.04" cy="208.75" r="59.5"/>
			</defs>
			<clipPath id="SVGID_8_">
				<use xlink:href="#SVGID_7_"  style="overflow:visible;"/>
			</clipPath>
			<path class="st3" d="M299.04,150.25c32.31,0,58.5,26.19,58.5,58.5h2c0-33.41-27.09-60.5-60.5-60.5V150.25z M240.54,208.75
				c0-32.31,26.19-58.5,58.5-58.5v-2c-33.41,0-60.5,27.09-60.5,60.5H240.54z M299.04,267.25c-32.31,0-58.5-26.19-58.5-58.5h-2
				c0,33.41,27.09,60.5,60.5,60.5V267.25z M357.54,208.75c0,32.31-26.19,58.5-58.5,58.5v2c33.41,0,60.5-27.09,60.5-60.5H357.54z"/>
		</g>
		<g class="st0">
			<defs>
				<ellipse id="SVGID_9_" cx="1008.54" cy="208.75" rx="60" ry="59.5"/>
			</defs>
			<clipPath id="SVGID_10_">
				<use xlink:href="#SVGID_9_"  style="overflow:visible;"/>
			</clipPath>
			<path class="st4" d="M1008.54,150.25c-32.59,0-59,26.2-59,58.5h-2c0-33.42,27.32-60.5,61-60.5V150.25z M1067.54,208.75
				c0-32.3-26.41-58.5-59-58.5v-2c33.68,0,61,27.08,61,60.5H1067.54z M1008.54,267.25c32.59,0,59-26.2,59-58.5h2
				c0,33.42-27.32,60.5-61,60.5V267.25z M949.54,208.75c0,32.3,26.41,58.5,59,58.5v2c-33.68,0-61-27.08-61-60.5H949.54z"/>
		</g>
		<g class="st0">
			<defs>
				<polygon id="SVGID_11_" points="67.18,29.73 155.96,48.81 165.25,139.13 82.22,175.89 21.6,108.27 				"/>
			</defs>
			<clipPath id="SVGID_12_">
				<use xlink:href="#SVGID_11_"  style="overflow:visible;"/>
			</clipPath>
			<path class="st5" d="M22.47,108.78l45.57-78.54l-1.73-1l-45.57,78.54L22.47,108.78z M82.96,175.22l-60.61-67.61l-1.49,1.34
				l60.61,67.61L82.96,175.22z M164.85,138.22l-83.03,36.75l0.81,1.83l83.03-36.75L164.85,138.22z M154.96,48.91l9.29,90.33
				l1.99-0.2l-9.29-90.33L154.96,48.91z M66.97,30.71l88.78,19.07l0.42-1.96L67.39,28.76L66.97,30.71z M21.6,108.27l-0.86-0.5
				l-0.36,0.63l0.48,0.54L21.6,108.27z M82.22,175.89l-0.74,0.67l0.48,0.54l0.66-0.29L82.22,175.89z M165.25,139.13l0.4,0.91
				l0.66-0.29l-0.07-0.72L165.25,139.13z M155.96,48.81l0.99-0.1l-0.07-0.72l-0.71-0.15L155.96,48.81z M67.18,29.73l0.21-0.98
				l-0.71-0.15l-0.36,0.63L67.18,29.73z"/>
		</g>
		<g class="st0">
			<defs>
				<polygon id="SVGID_13_" points="624.54,158.25 688.54,268.25 560.54,268.25 				"/>
			</defs>
			<clipPath id="SVGID_14_">
				<use xlink:href="#SVGID_13_"  style="overflow:visible;"/>
			</clipPath>
			<path class="st6" d="M561.41,268.75l64-110l-1.73-1.01l-64,110L561.41,268.75z M688.54,267.25h-128v2h128V267.25z M623.68,158.75
				l64,110l1.73-1.01l-64-110L623.68,158.75z M560.54,268.25l-0.86-0.5l-0.87,1.5h1.74V268.25z M688.54,268.25v1h1.74l-0.87-1.5
				L688.54,268.25z M624.54,158.25l0.86-0.5l-0.86-1.49l-0.86,1.49L624.54,158.25z"/>
		</g>
		<polygon class="st7" points="471.97,164.82 483.03,229.03 432.96,270.72 371.82,248.2 360.75,183.99 410.83,142.3 		"/>
		<g class="st0">
			<defs>
				<polygon id="SVGID_15_" points="471.97,164.82 483.03,229.03 432.96,270.72 371.82,248.2 360.75,183.99 410.83,142.3 				"/>
			</defs>
			<clipPath id="SVGID_16_">
				<use xlink:href="#SVGID_15_"  style="overflow:visible;"/>
			</clipPath>
			<path class="st8" d="M410.48,143.24l61.14,22.52l0.69-1.88l-61.14-22.52L410.48,143.24z M361.39,184.76l50.07-41.69l-1.28-1.54
				l-50.07,41.69L361.39,184.76z M372.8,248.03l-11.06-64.21l-1.97,0.34l11.06,64.21L372.8,248.03z M433.3,269.78l-61.14-22.52
				l-0.69,1.88l61.14,22.52L433.3,269.78z M482.39,228.27l-50.07,41.69l1.28,1.54l50.07-41.69L482.39,228.27z M470.98,164.99
				l11.06,64.21l1.97-0.34l-11.06-64.21L470.98,164.99z M410.83,142.3l0.35-0.94l-0.54-0.2l-0.44,0.37L410.83,142.3z M360.75,183.99
				l-0.64-0.77l-0.44,0.37l0.1,0.57L360.75,183.99z M371.82,248.2l-0.99,0.17l0.1,0.57l0.54,0.2L371.82,248.2z M432.96,270.72
				l-0.35,0.94l0.54,0.2l0.44-0.37L432.96,270.72z M483.03,229.03l0.64,0.77l0.44-0.37l-0.1-0.57L483.03,229.03z M471.97,164.82
				l0.99-0.17l-0.1-0.57l-0.54-0.2L471.97,164.82z"/>
		</g>
		<polygon class="st7" points="683.13,164.82 672.07,229.03 722.14,270.72 783.28,248.2 794.35,183.99 744.27,142.3 		"/>
		<g class="st0">
			<defs>
				<polygon id="SVGID_17_" points="683.13,164.82 672.07,229.03 722.14,270.72 783.28,248.2 794.35,183.99 744.27,142.3 				"/>
			</defs>
			<clipPath id="SVGID_18_">
				<use xlink:href="#SVGID_17_"  style="overflow:visible;"/>
			</clipPath>
			<path class="st9" d="M744.62,143.24l-61.14,22.52l-0.69-1.88l61.14-22.52L744.62,143.24z M793.71,184.76l-50.07-41.69l1.28-1.54
				l50.07,41.69L793.71,184.76z M782.3,248.03l11.06-64.21l1.97,0.34l-11.06,64.21L782.3,248.03z M721.8,269.78l61.14-22.52
				l0.69,1.88l-61.14,22.52L721.8,269.78z M672.71,228.27l50.07,41.69l-1.28,1.54l-50.07-41.69L672.71,228.27z M684.12,164.99
				l-11.06,64.21l-1.97-0.34l11.06-64.21L684.12,164.99z M744.27,142.3l-0.35-0.94l0.54-0.2l0.44,0.37L744.27,142.3z M794.35,183.99
				l0.64-0.77l0.44,0.37l-0.1,0.57L794.35,183.99z M783.28,248.2l0.99,0.17l-0.1,0.57l-0.54,0.2L783.28,248.2z M722.14,270.72
				l0.35,0.94l-0.54,0.2l-0.44-0.37L722.14,270.72z M672.07,229.03l-0.64,0.77l-0.44-0.37l0.1-0.57L672.07,229.03z M683.13,164.82
				l-0.99-0.17l0.1-0.57l0.54-0.2L683.13,164.82z"/>
		</g>
		<polygon class="st7" points="224.39,19.48 249.07,62.03 298.26,62.22 265.42,98.84 280.44,145.68 235.46,125.77 195.56,154.52 
			200.6,105.59 160.92,76.53 209.01,66.2 		"/>
		<g class="st0">
			<defs>
				<polygon id="SVGID_19_" points="224.39,19.48 249.07,62.03 298.26,62.22 265.42,98.84 280.44,145.68 235.46,125.77 
					195.56,154.52 200.6,105.59 160.92,76.53 209.01,66.2 				"/>
			</defs>
			<clipPath id="SVGID_20_">
				<use xlink:href="#SVGID_19_"  style="overflow:visible;"/>
			</clipPath>
			<path class="st10" d="M209.96,66.51l15.38-46.72l-1.9-0.63l-15.38,46.72L209.96,66.51z M161.13,77.51l48.09-10.33l-0.42-1.96
				l-48.09,10.33L161.13,77.51z M201.19,104.79l-39.68-29.07l-1.18,1.61l39.68,29.07L201.19,104.79z M196.55,154.62l5.04-48.93
				l-1.99-0.2l-5.04,48.93L196.55,154.62z M234.88,124.95l-39.9,28.75l1.17,1.62l39.9-28.75L234.88,124.95z M280.84,144.76
				l-44.97-19.91l-0.81,1.83l44.97,19.91L280.84,144.76z M264.47,99.15l15.02,46.84l1.9-0.61l-15.02-46.84L264.47,99.15z
				 M297.51,61.55l-32.84,36.62l1.49,1.34L299,62.89L297.51,61.55z M249.07,63.03l49.19,0.19l0.01-2l-49.19-0.19L249.07,63.03z
				 M223.53,19.98l24.68,42.54l1.73-1l-24.68-42.54L223.53,19.98z M209.01,66.2l0.21,0.98l0.56-0.12l0.18-0.54L209.01,66.2z
				 M160.92,76.53l-0.21-0.98l-2.18,0.47l1.8,1.32L160.92,76.53z M200.6,105.59l0.99,0.1l0.06-0.57l-0.46-0.34L200.6,105.59z
				 M195.56,154.52l-0.99-0.1l-0.23,2.22l1.81-1.3L195.56,154.52z M235.46,125.77l0.4-0.91l-0.52-0.23l-0.47,0.34L235.46,125.77z
				 M280.44,145.68l-0.4,0.91l2.04,0.9l-0.68-2.12L280.44,145.68z M265.42,98.84l-0.74-0.67l-0.38,0.43l0.18,0.55L265.42,98.84z
				 M298.26,62.22l0.74,0.67l1.49-1.66l-2.23-0.01L298.26,62.22z M249.07,62.03l-0.86,0.5l0.29,0.5l0.57,0L249.07,62.03z
				 M224.39,19.48l0.86-0.5l-1.12-1.93l-0.7,2.12L224.39,19.48z"/>
		</g>
		<polygon class="st7" points="1140.34,136.66 1115.66,179.2 1066.47,179.39 1099.31,216.02 1084.29,262.85 1129.27,242.94 
			1169.17,271.7 1164.13,222.77 1203.81,193.7 1155.72,183.38 		"/>
		<g class="st0">
			<defs>
				<polygon id="SVGID_21_" points="1140.34,136.66 1115.66,179.2 1066.47,179.39 1099.31,216.02 1084.29,262.85 1129.27,242.94 
					1169.17,271.7 1164.13,222.77 1203.81,193.7 1155.72,183.38 				"/>
			</defs>
			<clipPath id="SVGID_22_">
				<use xlink:href="#SVGID_21_"  style="overflow:visible;"/>
			</clipPath>
			<path class="st11" d="M1154.77,183.69l-15.38-46.72l1.9-0.63l15.38,46.72L1154.77,183.69z M1203.6,194.68l-48.09-10.33l0.42-1.96
				l48.09,10.33L1203.6,194.68z M1163.54,221.96l39.68-29.07l1.18,1.61l-39.68,29.07L1163.54,221.96z M1168.18,271.8l-5.04-48.93
				l1.99-0.2l5.04,48.93L1168.18,271.8z M1129.85,242.13l39.9,28.75l-1.17,1.62l-39.9-28.75L1129.85,242.13z M1083.89,261.94
				l44.97-19.91l0.81,1.83l-44.97,19.91L1083.89,261.94z M1100.26,216.32l-15.02,46.84l-1.9-0.61l15.02-46.84L1100.26,216.32z
				 M1067.22,178.73l32.84,36.62l-1.49,1.34l-32.84-36.62L1067.22,178.73z M1115.66,180.2l-49.19,0.19l-0.01-2l49.19-0.19
				L1115.66,180.2z M1141.21,137.16l-24.68,42.54l-1.73-1l24.68-42.54L1141.21,137.16z M1155.72,183.38l-0.21,0.98l-0.56-0.12
				l-0.18-0.54L1155.72,183.38z M1203.81,193.7l0.21-0.98l2.18,0.47l-1.8,1.32L1203.81,193.7z M1164.13,222.77l-0.99,0.1l-0.06-0.57
				l0.46-0.34L1164.13,222.77z M1169.17,271.7l0.99-0.1l0.23,2.22l-1.81-1.3L1169.17,271.7z M1129.27,242.94l-0.4-0.91l0.52-0.23
				l0.47,0.34L1129.27,242.94z M1084.29,262.85l0.4,0.91l-2.04,0.9l0.68-2.12L1084.29,262.85z M1099.31,216.02l0.74-0.67l0.38,0.43
				l-0.18,0.55L1099.31,216.02z M1066.47,179.39l-0.74,0.67l-1.49-1.66l2.23-0.01L1066.47,179.39z M1115.66,179.2l0.86,0.5
				l-0.29,0.5l-0.57,0L1115.66,179.2z M1140.34,136.66l-0.86-0.5l1.12-1.93l0.7,2.12L1140.34,136.66z"/>
		</g>
		<g class="st0">
			<defs>
				
					<rect id="SVGID_23_" x="483.64" y="184.74" transform="matrix(0.7022 -0.7119 0.7119 0.7022 12.7144 449.6497)" width="120.54" height="49.77"/>
			</defs>
			<clipPath id="SVGID_24_">
				<use xlink:href="#SVGID_23_"  style="overflow:visible;"/>
			</clipPath>
			<path class="st12" d="M484.58,235.76l84.65-85.82l-1.42-1.4l-84.65,85.82L484.58,235.76z M520.01,269.3l-35.43-34.95l-1.4,1.42
				l35.43,34.95L520.01,269.3z M603.24,183.49l-84.65,85.82l1.42,1.4l84.65-85.82L603.24,183.49z M567.82,149.95l35.43,34.95
				l1.4-1.42l-35.43-34.95L567.82,149.95z M483.87,235.06l-0.71-0.7l-0.7,0.71l0.71,0.7L483.87,235.06z M519.3,270.01l-0.7,0.71
				l0.71,0.7l0.7-0.71L519.3,270.01z M603.95,184.19l0.71,0.7l0.7-0.71l-0.71-0.7L603.95,184.19z M568.52,149.24l0.7-0.71l-0.71-0.7
				l-0.7,0.71L568.52,149.24z"/>
		</g>
		
			<rect x="919.78" y="104.41" transform="matrix(0.8967 -0.4427 0.4427 0.8967 45.0006 446.9899)" class="st7" width="120.54" height="45.36"/>
		<g class="st0">
			<defs>
				
					<rect id="SVGID_25_" x="919.78" y="104.41" transform="matrix(0.8967 -0.4427 0.4427 0.8967 45.0006 446.9899)" width="120.54" height="45.36"/>
			</defs>
			<clipPath id="SVGID_26_">
				<use xlink:href="#SVGID_25_"  style="overflow:visible;"/>
			</clipPath>
			<path class="st13" d="M916.41,134.33l108.08-53.36l-0.89-1.79l-108.08,53.36L916.41,134.33z M936.95,173.67l-20.08-40.68
				l-1.79,0.89l20.08,40.68L936.95,173.67z M1043.69,119.85l-108.08,53.36l0.89,1.79l108.08-53.36L1043.69,119.85z M1023.15,80.52
				l20.08,40.68l1.79-0.89l-20.08-40.68L1023.15,80.52z M915.97,133.44l-0.44-0.9l-0.9,0.44l0.44,0.9L915.97,133.44z M936.05,174.11
				l-0.9,0.44l0.44,0.9l0.9-0.44L936.05,174.11z M1044.13,120.75l0.44,0.9l0.9-0.44l-0.44-0.9L1044.13,120.75z M1024.05,80.08
				l0.9-0.44l-0.44-0.9l-0.9,0.44L1024.05,80.08z"/>
		</g>
		<g class="st0">
			<defs>
				<polygon id="SVGID_27_" points="1105.04,5.25 1154.89,25.9 1175.54,75.75 1154.89,125.6 1105.04,146.25 1055.19,125.6 
					1034.54,75.75 1055.19,25.9 				"/>
			</defs>
			<clipPath id="SVGID_28_">
				<use xlink:href="#SVGID_27_"  style="overflow:visible;"/>
			</clipPath>
			<path class="st14" d="M1055.57,26.82l49.85-20.65l-0.77-1.85l-49.85,20.65L1055.57,26.82z M1035.47,76.13l20.65-49.85l-1.85-0.77
				l-20.65,49.85L1035.47,76.13z M1056.12,125.22l-20.65-49.85l-1.85,0.77l20.65,49.85L1056.12,125.22z M1105.43,145.33
				l-49.85-20.65l-0.77,1.85l49.85,20.65L1105.43,145.33z M1154.51,124.68l-49.85,20.65l0.77,1.85l49.85-20.65L1154.51,124.68z
				 M1174.62,75.37l-20.65,49.85l1.85,0.77l20.65-49.85L1174.62,75.37z M1153.97,26.28l20.65,49.85l1.85-0.77l-20.65-49.85
				L1153.97,26.28z M1104.66,6.17l49.85,20.65l0.77-1.85l-49.85-20.65L1104.66,6.17z M1055.19,25.9l-0.38-0.92l-0.38,0.16
				l-0.16,0.38L1055.19,25.9z M1034.54,75.75l-0.92-0.38l-0.16,0.38l0.16,0.38L1034.54,75.75z M1055.19,125.6l-0.92,0.38l0.16,0.38
				l0.38,0.16L1055.19,125.6z M1105.04,146.25l-0.38,0.92l0.38,0.16l0.38-0.16L1105.04,146.25z M1154.89,125.6l0.38,0.92l0.38-0.16
				l0.16-0.38L1154.89,125.6z M1175.54,75.75l0.92,0.38l0.16-0.38l-0.16-0.38L1175.54,75.75z M1154.89,25.9l0.92-0.38l-0.16-0.38
				l-0.38-0.16L1154.89,25.9z M1105.04,5.25l0.38-0.92l-0.38-0.16l-0.38,0.16L1105.04,5.25z"/>
		</g>
	</g>
</g>
</svg>
